<svg width="682" height="682" viewBox="0 0 682 682" fill="none" xmlns="http://www.w3.org/2000/svg">
<path d="M572.452 45.9563H108.882C60.4136 45.9563 20.9795 85.3904 20.9795 133.859V417.554C20.9795 465.929 60.2419 505.292 108.57 505.456V634.202L293.572 505.468H572.452C620.92 505.468 660.354 466.034 660.354 417.554V133.859C660.354 85.3904 620.92 45.9563 572.452 45.9563V45.9563ZM489.225 375.646H192.109V338.182H489.225V375.646ZM489.225 295.724H192.109V258.26H489.225V295.724ZM489.225 215.802H192.109V178.339H489.225V215.802Z" fill="black"/>
<path d="M572.452 45.9563H108.882C60.4136 45.9563 20.9795 85.3904 20.9795 133.859V417.554C20.9795 465.929 60.2419 505.292 108.57 505.456V634.202L293.572 505.468H572.452C620.92 505.468 660.354 466.034 660.354 417.554V133.859C660.354 85.3904 620.92 45.9563 572.452 45.9563V45.9563ZM489.225 375.646H192.109V338.182H489.225V375.646ZM489.225 295.724H192.109V258.26H489.225V295.724ZM489.225 215.802H192.109V178.339H489.225V215.802Z" fill="url(#paint0_linear)"/>
<defs>
<linearGradient id="paint0_linear" x1="190" y1="216.5" x2="442.5" y2="364.5" gradientUnits="userSpaceOnUse">
<stop stop-color="#376BE6"/>
<stop offset="1" stop-color="#6470EF"/>
</linearGradient>
</defs>
</svg>
