<svg xmlns="http://www.w3.org/2000/svg" xmlns:xlink="http://www.w3.org/1999/xlink" version="1.1" x="0px" y="0px" viewBox="0 0 100 100" style="enable-background:new 0 0 100 100;" xml:space="preserve"><g><path fill="#fff" d="M76,23.2h-7v-7c0-4-3.2-7.2-7.2-7.2H24.2c-4,0-7.2,3.2-7.2,7.2v55.5c0,4,3.2,7.2,7.2,7.2h7v7c0,4,3.2,7.2,7.2,7.2H76   c4,0,7.2-3.2,7.2-7.2V30.4C83.2,26.4,79.9,23.2,76,23.2z M24.2,75.1c-1.9,0-3.5-1.6-3.5-3.5V16.2c0-1.9,1.6-3.5,3.5-3.5h37.6   c1.9,0,3.5,1.6,3.5,3.5v7H38.4c-4,0-7.2,3.2-7.2,7.2v44.8H24.2z M79.5,85.8c0,1.9-1.6,3.5-3.5,3.5H38.4c-1.9,0-3.5-1.6-3.5-3.5v-7   v-3.7V30.4c0-1.9,1.6-3.5,3.5-3.5h26.9H69h7c1.9,0,3.5,1.6,3.5,3.5V85.8z"/><path fill="#fff" d="M69.2,42.3H45.4c-1,0-1.8,0.8-1.8,1.8s0.8,1.8,1.8,1.8h23.8c1,0,1.8-0.8,1.8-1.8S70.2,42.3,69.2,42.3z"/><path fill="#fff" d="M69.2,53.4H45.4c-1,0-1.8,0.8-1.8,1.8c0,1,0.8,1.8,1.8,1.8h23.8c1,0,1.8-0.8,1.8-1.8C71.1,54.2,70.2,53.4,69.2,53.4z"/><path fill="#fff" d="M62.7,64.9H45.4c-1,0-1.8,0.8-1.8,1.8s0.8,1.8,1.8,1.8h17.3c1,0,1.8-0.8,1.8-1.8S63.7,64.9,62.7,64.9z"/></g></svg>