<svg width="512" height="512" viewBox="0 0 512 512" fill="none" xmlns="http://www.w3.org/2000/svg">
<g clip-path="url(#clip0)">
<path d="M85.3333 144C85.3333 88.128 130.795 42.6667 186.667 42.6667H381.504C374.485 18.112 352.107 0 325.333 0H79.9999C47.6373 0 21.3333 26.304 21.3333 58.6667V389.333C21.3333 421.696 47.6373 448 79.9999 448H85.3333V144Z" fill="white"/>
<path d="M432 85.3334H186.667C154.304 85.3334 128 111.637 128 144V453.333C128 485.696 154.304 512 186.667 512H432C464.363 512 490.667 485.696 490.667 453.333V144C490.667 111.637 464.363 85.3334 432 85.3334ZM389.333 448H229.333C220.501 448 213.333 440.832 213.333 432C213.333 423.168 220.501 416 229.333 416H389.333C398.165 416 405.333 423.168 405.333 432C405.333 440.832 398.165 448 389.333 448ZM389.333 362.667H229.333C220.501 362.667 213.333 355.499 213.333 346.667C213.333 337.835 220.501 330.667 229.333 330.667H389.333C398.165 330.667 405.333 337.835 405.333 346.667C405.333 355.499 398.165 362.667 389.333 362.667ZM389.333 288H229.333C220.501 288 213.333 280.832 213.333 272C213.333 263.168 220.501 256 229.333 256H389.333C398.165 256 405.333 263.168 405.333 272C405.333 280.832 398.165 288 389.333 288ZM389.333 202.667H229.333C220.501 202.667 213.333 195.499 213.333 186.667C213.333 177.835 220.501 170.667 229.333 170.667H389.333C398.165 170.667 405.333 177.835 405.333 186.667C405.333 195.499 398.165 202.667 389.333 202.667Z" fill="white"/>
</g>
<defs>
<clipPath id="clip0">
<rect width="512" height="512" fill="white"/>
</clipPath>
</defs>
</svg>
