<svg width="512" height="512" viewBox="0 0 512 585" fill="none" xmlns="http://www.w3.org/2000/svg">
<g clip-path="url(#clip0)">
<path d="M53.333 224C23.936 224 0 247.936 0 277.333V448C0 477.397 23.936 501.333 53.333 501.333H117.333C129.344 501.333 140.394 497.28 149.333 490.538V224H53.333Z" fill="black"/>
<path d="M53.333 224C23.936 224 0 247.936 0 277.333V448C0 477.397 23.936 501.333 53.333 501.333H117.333C129.344 501.333 140.394 497.28 149.333 490.538V224H53.333Z" fill="url(#paint0_linear)"/>
<path d="M512 304C512 291.179 506.923 279.232 498.112 270.421C508.075 259.52 513.152 244.906 511.765 229.696C509.269 202.581 484.842 181.333 456.128 181.333H324.352C330.88 161.514 341.333 125.184 341.333 96C341.333 49.728 302.016 10.667 277.333 10.667C255.168 10.667 239.338 23.147 238.656 23.659C236.139 25.686 234.667 28.758 234.667 32V104.341L173.227 237.44L170.667 238.741V467.392C188.032 475.584 210.005 480 224 480H419.819C443.051 480 463.382 464.341 468.16 442.731C470.613 431.616 469.184 420.416 464.299 410.688C480.064 402.752 490.667 386.517 490.667 368C490.667 360.448 488.939 353.216 485.654 346.667C501.419 338.731 512 322.496 512 304Z" fill="black"/>
<path d="M512 304C512 291.179 506.923 279.232 498.112 270.421C508.075 259.52 513.152 244.906 511.765 229.696C509.269 202.581 484.842 181.333 456.128 181.333H324.352C330.88 161.514 341.333 125.184 341.333 96C341.333 49.728 302.016 10.667 277.333 10.667C255.168 10.667 239.338 23.147 238.656 23.659C236.139 25.686 234.667 28.758 234.667 32V104.341L173.227 237.44L170.667 238.741V467.392C188.032 475.584 210.005 480 224 480H419.819C443.051 480 463.382 464.341 468.16 442.731C470.613 431.616 469.184 420.416 464.299 410.688C480.064 402.752 490.667 386.517 490.667 368C490.667 360.448 488.939 353.216 485.654 346.667C501.419 338.731 512 322.496 512 304Z" fill="url(#paint1_linear)"/>
</g>
<defs>
<linearGradient id="paint0_linear" x1="74.6665" y1="224" x2="74.6665" y2="501.333" gradientUnits="userSpaceOnUse">
<stop offset="0.154167" stop-color="#376BE6"/>
<stop offset="0.711458" stop-color="#6470EF"/>
</linearGradient>
<linearGradient id="paint1_linear" x1="341.333" y1="10.667" x2="341.333" y2="480" gradientUnits="userSpaceOnUse">
<stop offset="0.154167" stop-color="#376BE6"/>
<stop offset="0.711458" stop-color="#6470EF"/>
</linearGradient>
<clipPath id="clip0">
<rect width="512" height="512" fill="white"/>
</clipPath>
</defs>
</svg>
