<svg width="100" height="125" viewBox="0 0 100 125" fill="none" xmlns="http://www.w3.org/2000/svg">
<path d="M94.0771 80.619C88.9791 92.841 77.0261 94.983 73.1201 94.983C71.9731 94.983 54.1101 95.93 28.4321 71.573C7.76709 51.971 5.24209 30.892 5.02209 26.887C4.80809 22.986 5.92509 13.2 19.3871 5.92897C21.0551 5.02797 24.3621 4.62897 25.2161 5.48297C25.5951 5.86197 36.8941 24.455 37.1911 25.071C37.4881 25.686 37.6371 26.292 37.6371 26.886C37.6371 27.735 37.0321 28.797 35.8211 30.071C34.6111 31.345 33.2951 32.513 31.8721 33.574C30.4491 34.636 29.1331 35.761 27.9221 36.95C26.7121 38.138 26.1071 39.116 26.1071 39.88C26.1891 41.863 27.8141 48.966 40.1931 59.843C52.5741 70.723 58.5381 73.788 59.1111 74C59.6851 74.212 60.1621 74.317 60.5441 74.317C61.3091 74.317 62.2861 73.713 63.4751 72.503C64.6631 71.292 68.6601 65.814 69.9341 64.603C71.2081 63.394 72.2701 62.789 73.1201 62.789C73.7141 62.789 74.3191 62.937 74.9341 63.234C75.5501 63.531 94.1671 74.425 94.5231 74.789C95.4891 75.779 94.8071 78.869 94.0771 80.619Z" fill="#376BE6"/>
<path d="M94.0771 80.619C88.9791 92.841 77.0261 94.983 73.1201 94.983C71.9731 94.983 54.1101 95.93 28.4321 71.573C7.76709 51.971 5.24209 30.892 5.02209 26.887C4.80809 22.986 5.92509 13.2 19.3871 5.92897C21.0551 5.02797 24.3621 4.62897 25.2161 5.48297C25.5951 5.86197 36.8941 24.455 37.1911 25.071C37.4881 25.686 37.6371 26.292 37.6371 26.886C37.6371 27.735 37.0321 28.797 35.8211 30.071C34.6111 31.345 33.2951 32.513 31.8721 33.574C30.4491 34.636 29.1331 35.761 27.9221 36.95C26.7121 38.138 26.1071 39.116 26.1071 39.88C26.1891 41.863 27.8141 48.966 40.1931 59.843C52.5741 70.723 58.5381 73.788 59.1111 74C59.6851 74.212 60.1621 74.317 60.5441 74.317C61.3091 74.317 62.2861 73.713 63.4751 72.503C64.6631 71.292 68.6601 65.814 69.9341 64.603C71.2081 63.394 72.2701 62.789 73.1201 62.789C73.7141 62.789 74.3191 62.937 74.9341 63.234C75.5501 63.531 94.1671 74.425 94.5231 74.789C95.4891 75.779 94.8071 78.869 94.0771 80.619Z" fill="url(#paint0_linear)"/>
<defs>
<linearGradient id="paint0_linear" x1="20" y1="29" x2="64.5" y2="75" gradientUnits="userSpaceOnUse">
<stop offset="0.118697" stop-color="#6470EF"/>
<stop offset="0.740368" stop-color="#376BE6"/>
</linearGradient>
</defs>
</svg>
